<?xml version="1.0" encoding="utf-8"?>
<!-- Generator: Adobe Illustrator 14.0.0, SVG Export Plug-In . SVG Version: 6.00 Build 43363)  -->
<!DOCTYPE svg PUBLIC "-//W3C//DTD SVG 1.1//EN" "http://www.w3.org/Graphics/SVG/1.1/DTD/svg11.dtd">
<svg version="1.1" id="Layer_1" xmlns="http://www.w3.org/2000/svg" xmlns:xlink="http://www.w3.org/1999/xlink" x="0px" y="0px"
	 width="167px" height="173.729px" viewBox="0 0 167 173.729" enable-background="new 0 0 167 173.729" xml:space="preserve">
<g>
	<defs>
		<rect id="SVGID_1_" y="0" width="167" height="173.728"/>
	</defs>
	<clipPath id="SVGID_2_">
		<use xlink:href="#SVGID_1_"  overflow="visible"/>
	</clipPath>
</g>
<path fill="#FFFFFF" d="M48.565,33.811c7.491-0.608,15.456-1.511,22.563,1.467c9.364,3.496,19.765,1.962,28.835-1.669
	c7.267,0.021,15.592-2.012,21.91,2.617c9.612,5.935,19.427,11.484,29.287,17.034c-4.039,6.861-7.763,13.922-12.23,20.532
	c-7.603-4.311-15.116-8.753-22.607-13.245c-0.203,27.304,0.022,54.604-0.045,81.906c-22.315,0.136-44.63,0.114-66.945,0
	c-0.068-27.235,0.248-54.47-0.136-81.7c-7.355,4.511-14.801,8.888-22.292,13.198c-4.062-7.062-8.077-14.17-13.064-20.622
	C25.912,47.732,36.899,40.127,48.565,33.811"/>
</svg>
