<?xml version="1.0" encoding="utf-8"?>
<!-- Generator: Adobe Illustrator 14.0.0, SVG Export Plug-In . SVG Version: 6.00 Build 43363)  -->
<!DOCTYPE svg PUBLIC "-//W3C//DTD SVG 1.1//EN" "http://www.w3.org/Graphics/SVG/1.1/DTD/svg11.dtd">
<svg version="1.1" id="Layer_1" xmlns="http://www.w3.org/2000/svg" xmlns:xlink="http://www.w3.org/1999/xlink" x="0px" y="0px"
	 width="167px" height="173.729px" viewBox="0 0 167 173.729" enable-background="new 0 0 167 173.729" xml:space="preserve">
<g>
	<defs>
		<rect id="SVGID_1_" y="0" width="167" height="173.728"/>
	</defs>
	<clipPath id="SVGID_2_">
		<use xlink:href="#SVGID_1_"  overflow="visible"/>
	</clipPath>
</g>
<path fill="#FFFFFF" d="M26.105,26.884c1.817-1.158,3.848-1.931,6.051-1.66c34.435,0.03,68.884,0.03,103.333,0
	c5.409-0.686,10.015,3.82,12.461,8.155c0.357,34.722-0.014,69.47,0.187,104.206c0.516,4.278-3.576,6.867-6.467,9.229
	c-2.103,1.858-5.05,1.53-7.654,1.717c-33.361,0.013-66.737,0.013-100.114,0c-8.126,0.715-15.608-7.211-15.036-15.166
	c0.014-31.101,0.014-62.202,0-93.304C18.38,34.725,21.742,29.702,26.105,26.884 M77.435,46.626
	c-7.196,6.009-3.834,16.209-4.478,24.336c-3.676,0.157-7.381,0.228-10.887,1.459c0.1,4.677,0.058,9.356,0.029,14.049
	c3.319,0.156,6.638,0.156,9.971,0.199c-0.085,14.749,0.043,29.5-0.085,44.249c6.48,0.258,12.975,0.243,19.471,0.016
	c-0.115-14.808-0.044-29.6-0.058-44.407c4.292-0.015,8.584,0.028,12.86-0.057c0.229-4.808,0.645-9.6,0.76-14.379
	c-4.136-2.059-9.743-0.257-14.45-1.029c0.086-4.364-0.644-9.013,1.816-12.876c4.335-0.958,9.414,0.873,13.319-1.073
	c0.215-4.879-0.042-9.742,0.1-14.607C96.348,42.935,85.49,40.275,77.435,46.626"/>
</svg>
