<?xml version="1.0" encoding="utf-8"?>
<!-- Generator: Adobe Illustrator 14.0.0, SVG Export Plug-In . SVG Version: 6.00 Build 43363)  -->
<!DOCTYPE svg PUBLIC "-//W3C//DTD SVG 1.1//EN" "http://www.w3.org/Graphics/SVG/1.1/DTD/svg11.dtd">
<svg version="1.1" id="Layer_1" xmlns="http://www.w3.org/2000/svg" xmlns:xlink="http://www.w3.org/1999/xlink" x="0px" y="0px"
	 width="167px" height="173.729px" viewBox="0 0 167 173.729" enable-background="new 0 0 167 173.729" xml:space="preserve">
<g>
	<defs>
		<rect id="SVGID_1_" y="0" width="167" height="173.728"/>
	</defs>
	<clipPath id="SVGID_2_">
		<use xlink:href="#SVGID_1_"  overflow="visible"/>
	</clipPath>
</g>
<path fill="#FFFFFF" d="M22.726,28.19c-1.196-7.92,6.701-15.952,14.689-14.598c6.227-0.879,11.056,3.565,16.335,5.979
	c19.607,0.947,39.306-0.519,58.914,0.744c6.385-7.017,18.728-9.973,26.173-3.225c4.761,3.79,3.497,10.175,3.137,15.5
	c-4.265,14.756-10.741,29.265-21.188,40.727c-5.393,6.047-12.546,10.13-18.276,15.793c2.844,1.603,5.686,3.249,8.53,4.896
	c-2.031,0.745-6.115,2.234-8.146,2.979c-2.302-2.844-4.264-5.91-6.339-8.912c-7.266,6.25-9.387,15.456-10.651,24.504
	c2.189,1.308,4.4,2.616,6.634,3.926c-7.874,7.694-2.12,18.727,0.744,27.482c2.551,7.039,12.162,9.95,11.305,18.23
	c-14.508,0.43-29.017,0.068-43.502,0.226c-0.202-1.467-0.586-4.399-0.767-5.866c8.643-6.048,13.832-15.614,15.118-26.016
	c1.918-4.671-0.046-9.183-1.896-13.47c8.823-7.626,2.369-21.683-4.738-28.475c-2.188,3.046-4.377,6.092-6.567,9.138
	c-2.052-1.624-4.398-2.73-6.813-3.633c2.392-2.166,4.873-4.197,7.288-6.34C41.295,75.054,27.735,52.108,22.726,28.19 M29.156,20.7
	c-0.316,5.053-0.744,10.22,0.722,15.14c5.664,17.666,15.749,34.386,31.363,44.967c-5.911-17.215-9.116-35.468-8.867-53.677
	c-3.136,2.392-6.386,4.648-9.792,6.633c1.354-4.377,3.226-8.574,5.121-12.748C41.589,18.963,35.249,18.082,29.156,20.7
	 M117.627,21.173c1.782,3.43,3.678,6.815,5.506,10.244c-1.264,0.225-3.791,0.699-5.055,0.925c-1.671-3.272-3.341-6.521-5.01-9.77
	c-0.925,19.992-2.571,40.298-10.086,59.07c18.864-12.093,31.567-33.347,34.364-55.415C137.03,15.757,124.103,18.826,117.627,21.173"
	/>
</svg>
