<?xml version="1.0" encoding="utf-8"?>
<!-- Generator: Adobe Illustrator 14.0.0, SVG Export Plug-In . SVG Version: 6.00 Build 43363)  -->
<!DOCTYPE svg PUBLIC "-//W3C//DTD SVG 1.1//EN" "http://www.w3.org/Graphics/SVG/1.1/DTD/svg11.dtd">
<svg version="1.1" id="Layer_1" xmlns="http://www.w3.org/2000/svg" xmlns:xlink="http://www.w3.org/1999/xlink" x="0px" y="0px"
	 width="167px" height="173.729px" viewBox="0 0 167 173.729" enable-background="new 0 0 167 173.729" xml:space="preserve">
<g>
	<defs>
		<rect id="SVGID_1_" y="0" width="167" height="173.728"/>
	</defs>
	<clipPath id="SVGID_2_">
		<use xlink:href="#SVGID_1_"  overflow="visible"/>
	</clipPath>
</g>
<path fill="#FFFFFF" d="M18.299,26.889c2.69-1.33,5.094-3.806,8.284-3.663c37.124-0.015,74.264,0.015,111.401-0.015
	c3.52-0.3,6.195,2.462,9.128,4.021c0.171,39.642,0.043,79.299,0.071,118.955c-1.444,1.403-2.875,2.833-4.264,4.293
	c-36.495-0.015-72.976-0.028-109.47,0c-4.35-0.156-9.228,0.931-12.819-2.175c-2.875-1.173-2.818-4.378-2.818-6.967
	c-0.014-35.364,0.028-70.73-0.014-106.095C17.77,32.439,17.984,29.649,18.299,26.889 M65.967,43.498
	c5.007,2.589,10.029,5.637,12.69,10.843c3.906,4.993,2.99,11.589,2.676,17.497c-1.188,2.976-3.978,4.98-6.052,7.353
	c-3.348-0.027-6.781,0.458-10.058-0.371c-5.479-2.575-9.613-7.425-11.974-12.919c-0.543-3.334-0.443-6.738-0.171-10.072
	c1.144-4.519,4.792-7.653,7.682-11.058c-12.775,0.915-19.414,17.11-12.747,27.354c3.82,6.924,12.175,8.554,19.27,10.014
	c-0.872,4.563,0.845,8.698,3.191,12.562c-6.324,0.985-12.532,2.517-18.87,3.303c-4.95,1.89-8.898,5.824-11.674,10.23
	c-0.443,3.304-0.572,6.709,0.015,10.027c2.446,7.253,10.457,9.829,17.052,11.945c6.338,0.344,12.719,0.229,19.071,0.087
	c6.351-1.66,13.09-4.25,17.267-9.528c3.677-4.306,2.305-10.229,2.275-15.408c-4.636-7.812-13.105-12.146-18.455-19.341
	c-0.229-1.373-0.229-2.732,0-4.078c3.662-5.078,9.556-8.283,12.404-13.99c0.629-3.219,0.371-6.553,0.242-9.785
	c-1.359-3.606-3.533-6.796-5.565-10.015c3.005-0.96,5.995-1.96,8.985-2.948c-0.888-0.429-2.677-1.302-3.576-1.731
	C81.761,43.141,73.85,43.254,65.967,43.498 M111.575,70.394c-0.014,3.261-0.028,6.537-0.199,9.813
	c-3.921,0.3-8.513-0.972-11.273,2.618c3.705,0.816,7.438,1.603,11.202,2.219c0.242,3.219,0.242,6.438,0.257,9.684
	c1.029-0.026,3.09-0.1,4.12-0.128c0.015-3.377,0-6.724,0.043-10.072c3.361-0.157,6.738-0.157,10.114-0.114
	c0.015-1.016,0.028-3.047,0.043-4.063c-3.333-0.029-6.652-0.057-9.972-0.229c-0.171-3.249-0.214-6.495-0.2-9.728H111.575z"/>
<path fill="#FFFFFF" d="M63.864,96.359c5.064-1.745,10.344,0.501,15.079,2.317c5.794,2.088,10.201,7.726,10.93,13.763
	c-1.288,5.509-4.206,11.66-10.1,13.378c-9.772,3.604-22.704,3.561-29.929-5.009c-3.004-3.177-3.29-7.668-2.489-11.73
	C50.059,102.196,56.84,97.876,63.864,96.359"/>
</svg>
