<?xml version="1.0" encoding="utf-8"?>
<!-- Generator: Adobe Illustrator 14.0.0, SVG Export Plug-In . SVG Version: 6.00 Build 43363)  -->
<!DOCTYPE svg PUBLIC "-//W3C//DTD SVG 1.1//EN" "http://www.w3.org/Graphics/SVG/1.1/DTD/svg11.dtd">
<svg version="1.1" id="Layer_1" xmlns="http://www.w3.org/2000/svg" xmlns:xlink="http://www.w3.org/1999/xlink" x="0px" y="0px"
	 width="167px" height="173.729px" viewBox="0 0 167 173.729" enable-background="new 0 0 167 173.729" xml:space="preserve">
<g>
	<defs>
		<rect id="SVGID_1_" y="0" width="167" height="173.728"/>
	</defs>
	<clipPath id="SVGID_2_">
		<use xlink:href="#SVGID_1_"  overflow="visible"/>
	</clipPath>
</g>
<path fill="#FFFFFF" d="M43.437,25.639c0.916,0,2.733-0.014,3.648-0.014c-0.072,9.973-0.014,19.958-0.072,29.944
	c1.36,0,4.092,0.028,5.451,0.028c-0.072-9.971,0.014-19.957-0.086-29.928c23.649-0.072,47.297,0.014,70.945-0.044
	c9.929-0.958,18.654,6.94,22.316,15.594c0.872,8.069,0.187,16.251,0.358,24.364c-12.361-0.029-24.722,0-37.067,0
	c-2.604,0.429-4.392-1.618-6.338-2.904c-4.349-3.277-9.485-5.924-15.036-5.924c-6.352-0.156-13.161-0.757-18.941,2.405
	c-3.534,1.63-6.466,4.234-9.729,6.322c-13.275,0.23-26.58,0.015-39.856,0.086c-0.043-5.936-0.029-11.845,0-17.768
	c-0.501-7.711,5.05-14.121,10.386-18.984c0.372,8.912,0.072,17.853,0.143,26.795c1.788-0.042,3.591-0.071,5.408-0.115
	c0-9.413-0.172-18.826,0.042-28.225c0.716-0.63,2.161-1.889,2.89-2.518c0.931,10.229,0.243,20.529,0.387,30.801
	c1.731,0.015,3.49,0.029,5.25,0.043C43.523,45.612,43.637,35.626,43.437,25.639 M114.052,35.711
	c-0.458,6.639-0.372,13.291-0.086,19.929c6.753,0.544,13.548,0.429,20.315,0.129c0.258-6.725,0.344-13.449-0.087-20.143
	C127.485,35.311,120.748,35.24,114.052,35.711"/>
<path fill="#FFFFFF" d="M78.272,63.522c14.378-3.147,30.215,9.285,29.8,24.22c0.386,15.223-16.066,27.783-30.615,23.849
	c-9.099-1.789-16.996-8.869-19.285-17.911c-0.572-5.809-1.101-12.23,2.189-17.367C63.98,69.575,70.804,64.91,78.272,63.522
	 M77.729,70.16c-7.826,2.618-14.277,10.358-13.706,18.856c1.173,11.388,13.963,19.914,24.822,15.794
	c8.026-2.676,13.876-11.103,12.461-19.629C99.975,74.337,88,67.5,77.729,70.16"/>
<path fill="#FFFFFF" d="M18.873,69.674c12.332,0.014,24.65-0.115,36.982,0.057c-2.089,3.891-4.965,7.712-5.022,12.318
	c-0.3,6.324-0.944,13.176,2.274,18.927c4.307,9.015,13.077,15.966,22.976,17.64c6.61,0.301,13.691,1.045,19.858-1.944
	c11.658-5.065,20.442-17.397,19.526-30.344c0.172-6.08-2.86-11.603-5.794-16.71c12.146,0.086,24.292,0,36.453,0.057
	c-0.229,19.872-0.044,39.757-0.101,59.643c0.242,5.608-3.834,10.144-7.625,13.777c-4.092,3.705-9.485,6.165-15.079,5.823
	c-26.752,0.042-53.505,0-80.257,0.014c-11.087,0.758-21.102-8.127-23.806-18.483C18.615,110.204,19.374,89.918,18.873,69.674"/>
</svg>
