<?xml version="1.0" encoding="utf-8"?>
<!-- Generator: Adobe Illustrator 14.0.0, SVG Export Plug-In . SVG Version: 6.00 Build 43363)  -->
<!DOCTYPE svg PUBLIC "-//W3C//DTD SVG 1.1//EN" "http://www.w3.org/Graphics/SVG/1.1/DTD/svg11.dtd">
<svg version="1.1" id="Layer_1" xmlns="http://www.w3.org/2000/svg" xmlns:xlink="http://www.w3.org/1999/xlink" x="0px" y="0px"
	 width="167px" height="173.729px" viewBox="0 0 167 173.729" enable-background="new 0 0 167 173.729" xml:space="preserve">
<g>
	<defs>
		<rect id="SVGID_1_" y="0" width="167" height="173.728"/>
	</defs>
	<clipPath id="SVGID_2_">
		<use xlink:href="#SVGID_1_"  overflow="visible"/>
	</clipPath>
</g>
<path fill="#FFFFFF" d="M51.325,48.263c1.465-7.085,1.241-16.155,9.003-19.608c15.296-0.406,30.595,0,45.892-0.134
	c5.484,5.234,6.725,12.385,6.635,19.697c15.005,0.27,30.076-0.902,45.015,0.767c0.855,30.505,0.157,61.08,0.337,91.63
	c-7.558,3.925-16.155,2.233-24.3,2.526c-40.795,0.09-81.589-0.156-122.383,0.113c-1.603-1.646-3.227-3.295-4.829-4.92
	c0.158-27.21,0-54.444,0.068-81.655c-0.181-3.047,1.602-5.642,2.73-8.326C23.436,48.016,37.379,48.218,51.325,48.263 M74.632,56.746
	c-18.006,3.949-31.837,21.842-30.144,40.346c-0.09,22.831,24.21,42.327,46.503,36.438c14.575-3.746,26.646-16.11,29.264-31.068
	C126.505,77.053,100.173,50.023,74.632,56.746 M117.436,55.258c0,3.068,0.021,6.137,0.021,9.228
	c11.101,0.293,22.225,0.067,33.326,0.181c0.022-3.204,0.045-6.386,0.066-9.59C139.705,55.235,128.558,55.009,117.436,55.258"/>
<path fill="#FFFFFF" d="M72.059,73.692c14.531-8.912,35.154,4.444,33.914,21.165c1.376,16.472-18.028,29.648-32.875,22.314
	c-8.552-4.039-13.718-13.042-14.507-22.27C59.402,86.238,64.252,77.889,72.059,73.692"/>
</svg>
