<?xml version="1.0" encoding="utf-8"?>
<!-- Generator: Adobe Illustrator 14.0.0, SVG Export Plug-In . SVG Version: 6.00 Build 43363)  -->
<!DOCTYPE svg PUBLIC "-//W3C//DTD SVG 1.1//EN" "http://www.w3.org/Graphics/SVG/1.1/DTD/svg11.dtd">
<svg version="1.1" id="Layer_1" xmlns="http://www.w3.org/2000/svg" xmlns:xlink="http://www.w3.org/1999/xlink" x="0px" y="0px"
	 width="167px" height="173.729px" viewBox="0 0 167 173.729" enable-background="new 0 0 167 173.729" xml:space="preserve">
<g>
	<defs>
		<rect id="SVGID_1_" y="0" width="167" height="173.728"/>
	</defs>
	<clipPath id="SVGID_2_">
		<use xlink:href="#SVGID_1_"  overflow="visible"/>
	</clipPath>
</g>
<path fill="#FFFFFF" d="M49.417,19.716c2.617-0.77,5.302-1.063,8.033-0.882c36.665,4.512,70.396,28.182,86.642,61.463
	c7.424,15.161,11.057,33.913,3.182,49.638c-5.595,11.823-17.825,18.796-29.986,22.158c-15.027,3.135-29.513-2.956-43.051-8.731
	c-28.859-13.787-52.505-39.961-59.996-71.459c-2.528-13.831-0.248-29.784,10.65-39.644C31.276,25.242,40.527,22.151,49.417,19.716
	 M23.312,44.241c-1.421,5.978-0.677,12.432,0.429,18.435c1.196,6.79,6.95,11.077,11.214,15.996
	c10.898,13.245,24.346,24.821,40.118,31.835c7.874,2.866,16.584,6.364,24.999,3.702c6.138-1.15,11.305-6.996,10.943-13.356
	c1.265-21.322-12.793-39.058-23.036-56.454c15.703,11.1,26.873,27.458,32.897,45.576c8.414,5.687,10.13,15.615,13.108,24.617
	c2.979-1.354,6.003-2.662,9.025-3.948c-3.43,6.928-9.657,11.823-17.284,13.311c0.137-9.949,3.611-21.659-3.97-29.78
	c2.278,9.61,3.97,21.141-3.634,28.97c-7.558,6.839-18.275,3.61-26.962,1.285c-25.723-8.596-46.865-27.03-63.065-48.332
	c2.369,9.885,9.635,17.512,16.066,25.025c19.156,18.84,45.329,33.077,72.947,30.394c-3.746,4.061-7.671,7.965-11.26,12.182
	c4.874-2.819,10.223-5.279,13.742-9.836c5.572-8.1,16.358-9.093,24.007-14.645c-3.678,7.312-8.349,14.328-15.026,19.201
	c-5.348,4.491-12.614,4.715-18.841,7.267c17.531,1.151,35.582-12.637,35.356-30.911c2.347-21.729-9.318-41.88-23.285-57.514
	c-16.336-16.944-38.133-29.422-61.824-31.68C45.626,24.813,30.374,31.221,23.312,44.241"/>
</svg>
