<?xml version="1.0" encoding="utf-8"?>
<!-- Generator: Adobe Illustrator 14.0.0, SVG Export Plug-In . SVG Version: 6.00 Build 43363)  -->
<!DOCTYPE svg PUBLIC "-//W3C//DTD SVG 1.1//EN" "http://www.w3.org/Graphics/SVG/1.1/DTD/svg11.dtd">
<svg version="1.1" id="Layer_1" xmlns="http://www.w3.org/2000/svg" xmlns:xlink="http://www.w3.org/1999/xlink" x="0px" y="0px"
	 width="167px" height="173.729px" viewBox="0 0 167 173.729" enable-background="new 0 0 167 173.729" xml:space="preserve">
<g>
	<defs>
		<rect id="SVGID_1_" y="0" width="167" height="173.728"/>
	</defs>
	<clipPath id="SVGID_2_">
		<use xlink:href="#SVGID_1_"  overflow="visible"/>
	</clipPath>
</g>
<path fill="#FFFFFF" d="M15.974,24.805c14.441-3.227,29.4-0.993,44.066-1.648c16.201,0.61,32.582-1.353,48.646,1.174
	c0.947,5.956,1.715,11.913,2.009,17.938c10.763,0.361,21.796-1.355,32.355,1.308c2.865,3.227,6.024,7.063,5.912,11.643
	c0.045,23.398-0.046,46.82,0.045,70.216c1.602,12.682-10.627,25.045-23.331,23.488c-28.7-0.066-57.378-0.021-86.079,0
	c-12.681,0.971-24.458-10.898-23.714-23.488C15.996,91.886,15.861,58.357,15.974,24.805 M22.585,29.611
	c0.181,33.935-0.315,67.87,0.249,101.782c2.504,8.891,12.838,12.162,21.231,12.455c22.113,0.158,44.225-0.158,66.336,0.135
	c-3.113-5.865-7.491-11.664-6.994-18.658c0-31.883,0-63.765,0.022-95.624C76.489,29.43,49.525,29.589,22.585,29.611 M110.334,47.842
	c-0.045,28.091-0.361,56.206,0.157,84.25c3.408,6.16,9.59,11.643,17.126,10.65c6.499,0.857,10.921-4.783,14.373-9.453
	c1.061-27.121,0.496-54.356,0.315-81.5c-1.872-1.467-3.746-2.933-5.596-4.399c-2.663,1.241-5.324,2.459-7.964,3.7
	c-0.79,24.391-0.136,48.804-0.34,73.218c-2.188,0.18-4.377,0.338-6.543,0.52c0.294-25.656-1.285-51.445,0.947-77.032
	C118.638,47.819,114.485,47.842,110.334,47.842"/>
<path fill="#FFFFFF" d="M31.836,45.518c19.405,0.023,38.81-0.225,58.236,0.136c0.226,2.098,0.474,4.219,0.722,6.341
	c-19.855,0.811-39.757,0.473-59.635,0.18C31.362,49.963,31.588,47.729,31.836,45.518"/>
<path fill="#FFFFFF" d="M31.565,57.07c19.742,0.519,39.666-1.444,59.273,1.219c-0.091,1.263-0.294,3.813-0.383,5.076
	c-19.744,0.519-39.487,0.407-59.229,0.068C31.317,61.83,31.476,58.672,31.565,57.07"/>
<path fill="#FFFFFF" d="M65.05,79.25c8.483-0.113,17.012-0.181,25.496,0.09c0.067,1.918,0.136,3.836,0.226,5.731
	c-8.665-0.068-17.329-0.068-25.971,0C64.869,83.131,64.959,81.19,65.05,79.25"/>
<path fill="#FFFFFF" d="M29.851,82.996c5.234-6.228,13.989-3.249,21.052-3.836c3.271-0.452,5.572,2.076,8.01,3.768
	C49.525,85.861,39.213,86.041,29.851,82.996"/>
<path fill="#FFFFFF" d="M32.265,90.374c8.011-0.271,16.042-0.314,24.053-0.023c0.135,1.219,0.384,3.656,0.518,4.875
	c-8.213,1.76-16.606,1.217-24.931,1.172C31.994,94.888,32.175,91.862,32.265,90.374"/>
<path fill="#FFFFFF" d="M65.139,90.284c8.462-0.158,16.923-0.182,25.384,0.045c0,1.512,0,4.512,0.023,6.023
	c-8.573,0.113-17.125,0.092-25.7,0.092C64.937,94.909,65.073,91.841,65.139,90.284"/>
<path fill="#FFFFFF" d="M31.927,101.315c8.19-0.225,16.38-0.27,24.571,0.047c-0.045,1.578-0.158,4.738-0.203,6.295
	c-8.01,0.475-16.043,0.383-24.053,0.021C32.153,106.101,32.017,102.896,31.927,101.315"/>
<path fill="#FFFFFF" d="M63.38,101.249c9.092-0.338,18.208-0.203,27.302-0.158c0.021,1.287,0.066,3.881,0.09,5.168
	c-8.844,0.406-17.711,0.428-26.535-0.045C64.034,104.972,63.606,102.491,63.38,101.249"/>
<path fill="#FFFFFF" d="M31.769,112.554c8.303-0.045,16.629-0.113,24.955,0.135c-0.068,1.287-0.18,3.859-0.249,5.145
	c-7.964,1.896-16.425,1.918-24.367-0.09C32.017,116.435,31.858,113.862,31.769,112.554"/>
<path fill="#FFFFFF" d="M64.981,112.712c9.139-0.904,18.412-0.654,27.55,0.271c-0.677,0.924-2.03,2.773-2.73,3.699
	c-8.889,1.67-18.186,0.609-27.188,0.111C63.198,115.757,64.396,113.726,64.981,112.712"/>
<path fill="#FFFFFF" d="M31.655,123.948c8.395-0.068,16.766-0.068,25.136,0c0,1.172-0.045,3.541-0.068,4.715
	c-8.213,0.113-16.448,0.092-24.639,0C31.971,127.489,31.768,125.12,31.655,123.948"/>
<path fill="#FFFFFF" d="M66.426,128.257c-4.174-1.918-4.241-4.061-0.226-6.385c7.807-0.293,15.682-0.361,23.489,0.135
	c0.405,1.512,1.219,4.514,1.624,6.002C83.032,128.528,74.706,128.731,66.426,128.257"/>
</svg>
