<?xml version="1.0" encoding="utf-8"?>
<!-- Generator: Adobe Illustrator 14.0.0, SVG Export Plug-In . SVG Version: 6.00 Build 43363)  -->
<!DOCTYPE svg PUBLIC "-//W3C//DTD SVG 1.1//EN" "http://www.w3.org/Graphics/SVG/1.1/DTD/svg11.dtd">
<svg version="1.1" id="Layer_1" xmlns="http://www.w3.org/2000/svg" xmlns:xlink="http://www.w3.org/1999/xlink" x="0px" y="0px"
	 width="167px" height="173.729px" viewBox="0 0 167 173.729" enable-background="new 0 0 167 173.729" xml:space="preserve">
<g>
	<defs>
		<rect id="SVGID_1_" y="0" width="167" height="173.728"/>
	</defs>
	<clipPath id="SVGID_2_">
		<use xlink:href="#SVGID_1_"  overflow="visible"/>
	</clipPath>
</g>
<path fill="#FFFFFF" d="M28.102,25.424c36.71-0.387,73.477-0.229,110.201-0.071c4.777,2.689,9.599,7.381,9.255,13.304
	c0.015,31.545-0.028,63.104,0.015,94.665c0.715,8.011-6.996,15.908-15.05,15.179c-32.961,0.014-65.937,0.028-98.899-0.015
	c-7.253,0.387-15.035-6.151-14.177-13.748c0.043-32.532,0-65.05,0.029-97.568C19.018,31.704,23.938,27.942,28.102,25.424
	 M86.285,64.422c-2.361,3.291-1.832,7.41-1.788,11.23c-13.034-0.113-25.638-6.365-34.334-15.951
	c-2.532-1.96-3.219,2.275-3.749,4.006c-1.974,6.882,3.305,12.69,7.339,17.596c-2.761-0.715-5.493-1.587-8.268-2.16
	c0.886,2.99,1.788,6.052,3.405,8.77c2.474,3.948,6.923,5.809,10.6,8.384c-2.518,0.171-5.035,0.343-7.554,0.514
	c3.763,5.938,9.571,9.93,16.295,11.903c-7.525,4.479-16.137,6.28-24.75,6.995c7.34,3.292,15.05,6.268,23.162,6.625
	c13.519,0.772,27.625-3.691,37.382-13.263c10-9.284,16.195-23.019,15.022-36.78c2.86-2.518,5.837-4.907,8.712-7.396
	c-2.274,0.114-6.81,0.329-9.085,0.428c2.689-2.417,5.251-4.993,7.555-7.767c-4.851-0.243-10.072,4.534-14.45,0.614
	C103.667,51.918,90.791,55.38,86.285,64.422"/>
</svg>
