<?xml version="1.0" encoding="utf-8"?>
<!-- Generator: Adobe Illustrator 14.0.0, SVG Export Plug-In . SVG Version: 6.00 Build 43363)  -->
<!DOCTYPE svg PUBLIC "-//W3C//DTD SVG 1.1//EN" "http://www.w3.org/Graphics/SVG/1.1/DTD/svg11.dtd">
<svg version="1.1" id="Layer_1" xmlns="http://www.w3.org/2000/svg" xmlns:xlink="http://www.w3.org/1999/xlink" x="0px" y="0px"
	 width="167px" height="173.729px" viewBox="0 0 167 173.729" enable-background="new 0 0 167 173.729" xml:space="preserve">
<g>
	<defs>
		<rect id="SVGID_1_" y="0" width="167" height="173.728"/>
	</defs>
	<clipPath id="SVGID_2_">
		<use xlink:href="#SVGID_1_"  overflow="visible"/>
	</clipPath>
</g>
<path fill="#FFFFFF" d="M35.458,24.813c30.958-0.271,61.932-0.013,92.89-0.128c9.441-0.601,18.326,8.197,17.653,17.667
	c-0.028,29.672-0.028,59.329,0,88.985c0.673,9.5-8.196,18.313-17.683,17.669c-29.642-0.028-59.284-0.043-88.912,0
	c-9.6,0.93-19.314-7.969-18.384-17.754c0.043-30.058-0.014-60.101,0.029-90.158C20.837,33.069,27.977,26.345,35.458,24.813
	 M89.993,50.264c-5.121,2.79-7.01,8.77-8.068,14.134c-0.558,11.817,3.734,24.55,14.091,31.204
	c-3.834,5.808-7.925,11.459-12.675,16.566c-6.08-5.452-9.528-13.034-12.69-20.386c-3.848-10.072-6.824-20.602-7.854-31.346
	c-4.764-0.144-9.528-0.172-14.277-0.043c1.716,8.469,3.419,16.952,6.122,25.178c4.45,13.763,9.957,28.241,21.417,37.741
	c2.904,2.574,7.725,4.404,11.016,1.459c8.771-7.582,15.98-16.969,21.544-27.111c2.991-0.271,5.967-0.83,8.899-1.529
	c-0.028-3.249-0.071-6.468-0.144-9.7c-5.837-0.416-12.66,1.616-17.496-2.633c-5.265-4.278-7.626-11.63-6.423-18.24
	c1.102-3.205,2.532-8.026,6.909-6.681c6.939,4.077,3.392,12.718,3.82,19.183c3.491,2.061,7.368,2.891,11.401,2.419
	c3.392-6.853,2.433-14.893,1.731-22.246C113.714,47.332,99.007,44.585,89.993,50.264"/>
</svg>
