<?xml version="1.0" encoding="utf-8"?>
<!-- Generator: Adobe Illustrator 14.0.0, SVG Export Plug-In . SVG Version: 6.00 Build 43363)  -->
<!DOCTYPE svg PUBLIC "-//W3C//DTD SVG 1.1//EN" "http://www.w3.org/Graphics/SVG/1.1/DTD/svg11.dtd">
<svg version="1.1" id="Layer_1" xmlns="http://www.w3.org/2000/svg" xmlns:xlink="http://www.w3.org/1999/xlink" x="0px" y="0px"
	 width="167px" height="173.729px" viewBox="0 0 167 173.729" enable-background="new 0 0 167 173.729" xml:space="preserve">
<g>
	<defs>
		<rect id="SVGID_1_" y="0" width="167" height="173.728"/>
	</defs>
	<clipPath id="SVGID_2_">
		<use xlink:href="#SVGID_1_"  overflow="visible"/>
	</clipPath>
</g>
<path fill="#FFFFFF" d="M27.222,23.886c2.046-0.745,4.278-0.644,6.438-0.688c33.462,0.129,66.925-0.014,100.373,0.072
	c6.595-0.042,12.461,6.123,12.031,12.733c0.015,33.447-0.028,66.881,0.029,100.329c0.972,7.067-4.821,14.22-12.061,14.177
	c-34.393,0.03-68.785,0.03-103.176,0c-6.61,0.014-12.475-6.123-12.032-12.747V36.017C18.495,30.667,22.215,25.573,27.222,23.886
	 M55.634,36.475c2.433,7.21,5.394,14.306,6.953,21.789c0.458,5.349,0.086,10.743,0.157,16.108c1.416,0,4.221-0.014,5.623-0.014
	c0.143-5.479-0.487-11.031,0.358-16.438c2.016-7.196,4.32-14.306,6.48-21.445c-1.903,0-3.777,0.014-5.65,0.057
	c-1.288,4.964-2.533,9.943-3.921,14.879c-1.474-4.922-2.746-9.915-4.091-14.879C59.569,36.503,57.594,36.489,55.634,36.475
	 M80.098,46.303c-4.564,1.631-4.906,7.025-4.707,11.145c0.329,4.721-0.93,9.928,1.445,14.292c3.133,4.921,11.946,3.634,13.119-2.246
	c0.887-5.637,0.615-11.417,0.243-17.082C89.983,47.576,84.447,44.401,80.098,46.303 M94.805,46.232
	c0.186,8.497-0.314,17.024,0.229,25.522c0,3.018,3.19,3.361,5.394,2.433c2.904-1.174,5.894,0.227,8.855,0.472
	c0.229-9.501,0.043-18.986,0.114-28.47c-1.674,0.014-3.333,0.028-4.991,0.057c-0.016,7.497,0.185,15.022-0.131,22.532
	c-1.387,0.658-2.774,1.316-4.148,1.988c-0.715-8.155-0.229-16.351-0.343-24.52C98.539,46.232,96.049,46.232,94.805,46.232
	 M52.988,80.152c-4.207,0.085-8.469,2.375-10.043,6.438c-1.917,5.335-1.975,11.129-2.146,16.752
	c0.029,8.268-0.386,16.666,1.416,24.807c0.887,4.435,4.821,8.055,9.385,8.368c14.535,1.575,29.199,1.073,43.806,1.073
	c7.367-0.428,14.979,0.115,22.103-2.017c7.197-3.49,6.61-12.66,7.168-19.399c-0.042-10,1.001-20.429-2.246-30.043
	c-2.947-6.566-11.002-6.107-17.01-6.538C87.952,79.008,70.412,78.721,52.988,80.152"/>
<path fill="#FFFFFF" d="M80.842,50.508c1.059,0.087,3.161,0.272,4.221,0.358c0.543,6.295,0.571,12.662-0.044,18.955
	c-1.058,0.058-3.176,0.158-4.235,0.216C80.17,63.542,80.098,56.975,80.842,50.508"/>
<path fill="#FFFFFF" d="M46.922,89.436c5.951,0.043,11.903,0.043,17.854,0.029v5.493c-2.046,0-4.078,0.015-6.109,0.044
	c0.058,10.772,0,21.56,0.044,32.33c-1.961-0.014-3.906-0.014-5.838-0.026c0.043-10.787-0.028-21.561,0.029-32.333
	c-2.002-0.015-4.006-0.015-5.994-0.015C46.893,93.112,46.893,91.268,46.922,89.436"/>
<path fill="#FFFFFF" d="M84.433,89.479c1.717-0.015,3.434-0.029,5.179-0.015c0.028,3.833,0.015,7.683-0.014,11.53
	c2.546-1.53,6.252-3.804,8.611-0.658c2.203,4.979,0.888,10.688,1.274,15.995c-0.329,3.748,0.943,9.127-3.19,11.23
	c-3.935-0.773-7.826-0.945-11.774,0C84.318,114.858,84.49,102.168,84.433,89.479 M89.783,103.843
	c-0.272,6.15-0.129,12.304-0.144,18.47c1.374,0.199,2.762,0.356,4.178,0.458c0.673-6.31,0.443-12.662,0.186-18.971
	C92.944,103.814,90.827,103.843,89.783,103.843"/>
<path fill="#FFFFFF" d="M65.362,99.107c1.76,0,3.52,0.014,5.279,0.042c0.029,8.056-0.186,16.124,0.158,24.178
	c0.986-0.472,2.947-1.4,3.934-1.859c0.3-7.453,0.1-14.906,0.143-22.347c1.316-0.014,3.948-0.014,5.264-0.014
	c-0.043,9.485,0.058,18.97-0.071,28.455c-3.176-0.244-6.394-1.546-9.514-0.315c-2.117,0.959-5.122-0.043-4.935-2.719
	C65.063,116.073,65.577,107.576,65.362,99.107"/>
<path fill="#FFFFFF" d="M103.56,104.872c0.559-5.966,8.87-8.183,12.833-4.047c3.29,3.604,1.945,8.925,2.289,13.36
	c-3.448,0.042-6.882,0-10.314,0.059c0.429,3.061-1.044,7.495,2.604,9.04c2.604-0.743,2.117-3.762,2.704-5.822
	c1.302,0.015,3.905,0.042,5.206,0.057c-0.428,2.519-0.056,5.48-1.888,7.554c-3.619,4.665-12.546,2.861-13.376-3.233
	C103.002,116.218,103.06,110.495,103.56,104.872 M109.54,102.769c-0.601,2.29-1.059,4.606-1.459,6.969
	c1.874,0.028,3.762,0.028,5.65,0C113.531,106.646,113.245,103.299,109.54,102.769"/>
</svg>
